<mxfile host="65bd71144e">
    <diagram id="C1N_7mTjSJdPViJmiVVr" name="Página-1">
        <mxGraphModel dx="804" dy="470" grid="1" gridSize="10" guides="1" tooltips="1" connect="1" arrows="1" fold="1" page="1" pageScale="1" pageWidth="827" pageHeight="1169" math="0" shadow="0">
            <root>
                <mxCell id="0"/>
                <mxCell id="1" parent="0"/>
                <mxCell id="18" value="" style="edgeStyle=none;html=1;" parent="1" source="19" target="29" edge="1">
                    <mxGeometry relative="1" as="geometry"/>
                </mxCell>
                <mxCell id="19" value="INICIO" style="html=1;dashed=0;whitespace=wrap;shape=mxgraph.dfd.start;fillColor=#33001A;" parent="1" vertex="1">
                    <mxGeometry x="190" y="50" width="80" height="30" as="geometry"/>
                </mxCell>
                <mxCell id="20" style="edgeStyle=none;html=1;exitX=0;exitY=0.5;exitDx=0;exitDy=0;" parent="1" source="22" target="37" edge="1">
                    <mxGeometry relative="1" as="geometry">
                        <Array as="points">
                            <mxPoint x="255" y="255"/>
                        </Array>
                    </mxGeometry>
                </mxCell>
                <mxCell id="41" style="edgeStyle=none;html=1;exitX=1;exitY=0.5;exitDx=0;exitDy=0;" parent="1" source="22" target="38" edge="1">
                    <mxGeometry relative="1" as="geometry">
                        <Array as="points">
                            <mxPoint x="414" y="255"/>
                        </Array>
                    </mxGeometry>
                </mxCell>
                <mxCell id="22" value="x == nc&amp;nbsp;" style="shape=rhombus;html=1;dashed=0;whitespace=wrap;perimeter=rhombusPerimeter;fillColor=#CC0066;" parent="1" vertex="1">
                    <mxGeometry x="300" y="220" width="90" height="70" as="geometry"/>
                </mxCell>
                <mxCell id="42" style="edgeStyle=none;html=1;exitX=0.5;exitY=0;exitDx=0;exitDy=0;entryX=0.5;entryY=0.5;entryDx=0;entryDy=-15;entryPerimeter=0;" parent="1" source="25" target="26" edge="1">
                    <mxGeometry relative="1" as="geometry"/>
                </mxCell>
                <mxCell id="25" value="n" style="shape=document;whiteSpace=wrap;html=1;boundedLbl=1;dashed=0;flipH=1;fillColor=#FF0080;" parent="1" vertex="1">
                    <mxGeometry x="205" y="490" width="100" height="70" as="geometry"/>
                </mxCell>
                <mxCell id="26" value="FIN" style="html=1;dashed=0;whitespace=wrap;shape=mxgraph.dfd.start;fillColor=#33001A;" parent="1" vertex="1">
                    <mxGeometry x="215" y="600" width="80" height="30" as="geometry"/>
                </mxCell>
                <mxCell id="27" style="edgeStyle=none;html=1;exitX=0.5;exitY=1;exitDx=0;exitDy=0;entryX=0.5;entryY=0;entryDx=0;entryDy=0;" parent="1" source="29" target="39" edge="1">
                    <mxGeometry relative="1" as="geometry">
                        <Array as="points">
                            <mxPoint x="110" y="180"/>
                        </Array>
                        <mxPoint x="115" y="220" as="targetPoint"/>
                    </mxGeometry>
                </mxCell>
                <mxCell id="28" style="edgeStyle=none;html=1;exitX=0.5;exitY=1;exitDx=0;exitDy=0;entryX=0.5;entryY=0;entryDx=0;entryDy=0;" parent="1" source="29" target="22" edge="1">
                    <mxGeometry relative="1" as="geometry">
                        <Array as="points">
                            <mxPoint x="345" y="180"/>
                        </Array>
                    </mxGeometry>
                </mxCell>
                <mxCell id="29" value="n&lt;br&gt;nc = n&lt;br&gt;x = 0&lt;br&gt;r = 0" style="shape=parallelogram;perimeter=parallelogramPerimeter;whiteSpace=wrap;html=1;dashed=0;fillColor=#660033;" parent="1" vertex="1">
                    <mxGeometry x="180" y="110" width="100" height="50" as="geometry"/>
                </mxCell>
                <mxCell id="45" style="edgeStyle=none;html=1;exitX=0;exitY=0.5;exitDx=0;exitDy=0;" edge="1" parent="1" source="35">
                    <mxGeometry relative="1" as="geometry">
                        <mxPoint x="108" y="200" as="targetPoint"/>
                        <Array as="points">
                            <mxPoint x="30" y="425"/>
                            <mxPoint x="30" y="200"/>
                        </Array>
                    </mxGeometry>
                </mxCell>
                <mxCell id="35" value="r = n % 10&lt;br&gt;x = x * 10 + r&lt;br&gt;n = n // 10" style="html=1;dashed=0;whitespace=wrap;fillColor=#99004D;" parent="1" vertex="1">
                    <mxGeometry x="70" y="400" width="80" height="50" as="geometry"/>
                </mxCell>
                <mxCell id="44" value="" style="edgeStyle=none;html=1;" parent="1" source="37" target="25" edge="1">
                    <mxGeometry relative="1" as="geometry"/>
                </mxCell>
                <mxCell id="37" value="n es capicúa" style="html=1;dashed=0;whitespace=wrap;fillColor=#99004D;" parent="1" vertex="1">
                    <mxGeometry x="215" y="400" width="80" height="50" as="geometry"/>
                </mxCell>
                <mxCell id="38" value="n no es capicúa" style="html=1;dashed=0;whitespace=wrap;fillColor=#99004D;" parent="1" vertex="1">
                    <mxGeometry x="369" y="400" width="90" height="50" as="geometry"/>
                </mxCell>
                <mxCell id="40" value="" style="edgeStyle=none;html=1;" parent="1" source="39" target="35" edge="1">
                    <mxGeometry relative="1" as="geometry"/>
                </mxCell>
                <mxCell id="39" value="n &amp;gt; 0" style="shape=hexagon;perimeter=hexagonPerimeter2;whiteSpace=wrap;html=1;size=0.25;fillColor=#FF3399;" parent="1" vertex="1">
                    <mxGeometry x="60" y="230" width="100" height="50" as="geometry"/>
                </mxCell>
                <mxCell id="43" value="" style="strokeWidth=2;html=1;shape=mxgraph.flowchart.annotation_2;align=left;labelPosition=right;pointerEvents=1;fillColor=#FF3399;rotation=-90;" parent="1" vertex="1">
                    <mxGeometry x="230" y="320" width="50" height="300" as="geometry"/>
                </mxCell>
            </root>
        </mxGraphModel>
    </diagram>
</mxfile>